<svg width="283.46" height="283.46" xmlns="http://www.w3.org/2000/svg" data-name="Capa 1">
 <title>mega-iconB</title>

 <g>
  <title>Layer 1</title>
  <g opacity="0.4" id="mega-iconB">
   <g id="Grupo_549" data-name="Grupo 549">
    <path id="Trazado_10" data-name="Trazado 10" d="m139.52,155.05a3,3 0 0 1 -0.87,-2.19l0,-8l-8,0a2.91,2.91 0 0 1 -2.19,-0.9a3.05,3.05 0 0 1 -0.87,-2.22a3,3 0 0 1 2.88,-3.05l8.21,0l0,-8a2.87,2.87 0 0 1 0.93,-2.16a3,3 0 0 1 5.18,2.16l0,8l8,0a3.05,3.05 0 0 1 2.19,0.9a2.94,2.94 0 0 1 0.92,2.22a2.87,2.87 0 0 1 -0.92,2.15a3.05,3.05 0 0 1 -2.19,0.9l-8,0l0,8a3.09,3.09 0 0 1 -5.24,2.19l-0.03,0z" fill="#000000"/>
   </g>
  </g>
 </g>
</svg>