<svg xmlns="http://www.w3.org/2000/svg" width="32.433" height="32.426" viewBox="0 0 32.433 32.426">
  <path id="instagram-brands" d="M16.145,39.724a8.314,8.314,0,1,0,8.314,8.314A8.3,8.3,0,0,0,16.145,39.724Zm0,13.719a5.4,5.4,0,1,1,5.4-5.4,5.415,5.415,0,0,1-5.4,5.4ZM26.738,39.384A1.939,1.939,0,1,1,24.8,37.445,1.935,1.935,0,0,1,26.738,39.384Zm5.506,1.968a9.6,9.6,0,0,0-2.619-6.794,9.659,9.659,0,0,0-6.794-2.619c-2.677-.152-10.7-.152-13.378,0a9.645,9.645,0,0,0-6.794,2.612A9.628,9.628,0,0,0,.039,41.345c-.152,2.677-.152,10.7,0,13.378a9.6,9.6,0,0,0,2.619,6.794,9.672,9.672,0,0,0,6.794,2.619c2.677.152,10.7.152,13.378,0a9.6,9.6,0,0,0,6.794-2.619,9.659,9.659,0,0,0,2.619-6.794C32.4,52.046,32.4,44.03,32.244,41.352ZM28.786,57.6A5.472,5.472,0,0,1,25.7,60.678c-2.134.847-7.2.651-9.558.651s-7.431.188-9.558-.651A5.472,5.472,0,0,1,3.5,57.6c-.847-2.134-.651-7.2-.651-9.558s-.188-7.431.651-9.558A5.472,5.472,0,0,1,6.587,35.4c2.134-.847,7.2-.651,9.558-.651s7.431-.188,9.558.651a5.472,5.472,0,0,1,3.082,3.082c.847,2.134.651,7.2.651,9.558S29.632,55.469,28.786,57.6Z" transform="translate(0.075 -31.825)"/>
</svg>
