<svg xmlns="http://www.w3.org/2000/svg" width="396.325" height="566.225" viewBox="0 0 396.325 566.225">
  <g id="mega-iconB-line" transform="translate(-327.579 -213.063)">
    <g id="Grupo_548" data-name="Grupo 548" transform="translate(328.079 215.577)">
      <g id="Grupo_547" data-name="Grupo 547">
        <path id="Trazado_9" data-name="Trazado 9" d="M582.75,404.727q41.969,25.836,66,71.389,24.034,45.575,24.033,101.526t-25.827,101.52a188.671,188.671,0,0,1-71.389,71.747Q530,777.113,474.761,777.094q-55.25,0-100.079-26.186a192.8,192.8,0,0,1-71.03-71.747q-26.2-45.556-26.192-101.52V250.471q0-16.491,10.409-26.544,10.383-10.034,26.185-10.044,16.491,0,26.544,10.044t10.044,26.544v193.72a175.879,175.879,0,0,1,60.986-48.073Q447.5,378.9,489.115,378.9,540.769,378.9,582.75,404.727ZM539.7,694.944q29.055-17.567,45.921-48.425,16.84-30.839,16.853-68.878,0-38.023-16.853-68.519A126.881,126.881,0,0,0,539.7,461.05q-29.055-17.567-64.938-17.577T409.835,461.05a124.115,124.115,0,0,0-45.555,48.073q-16.519,30.5-16.507,68.519t16.507,68.878a123.365,123.365,0,0,0,45.555,48.425q29.065,17.586,64.926,17.583T539.7,694.944Z" transform="translate(-277.46 -213.883)" fill="none" stroke="#707070" stroke-width="1"/>
      </g>
    </g>
    <g id="Grupo_549" data-name="Grupo 549" transform="translate(606.591 213.563)">
      <path id="Trazado_10" data-name="Trazado 10" d="M359.243,299.8a9.3,9.3,0,0,1-2.731-6.866v-25.2h-25.2a9.172,9.172,0,0,1-6.866-2.819,9.62,9.62,0,0,1-2.725-6.96,9.317,9.317,0,0,1,9.59-9.591h25.2v-25.21a9.059,9.059,0,0,1,2.92-6.765,9.456,9.456,0,0,1,16.268,6.765v25.21h25.2a9.54,9.54,0,0,1,6.866,2.819,9.292,9.292,0,0,1,2.914,6.96,9.089,9.089,0,0,1-2.914,6.771,9.566,9.566,0,0,1-6.866,2.819H375.7v25.2a9.706,9.706,0,0,1-16.457,6.866Z" transform="translate(-321.717 -213.563)" fill="none" stroke="#707070" stroke-width="1"/>
    </g>
  </g>
</svg>
